<svg xmlns="http://www.w3.org/2000/svg" width="1080" height="260" style="shape-rendering:geometricPrecision;text-rendering:geometricPrecision;image-rendering:optimizeQuality;fill-rule:evenodd;clip-rule:evenodd">
	<path style="opacity:.979" fill="#167de6" d="M514.5 7.5q9.912-2.076 15.5 6 1 60 0 120-11.55 48.81-61.5 51-41.898-.665-58.5-39-13.675-43.048 18.5-74.5 23.099-16.72 51-10 15.798 4.267 26.5 16.5l1-59q.813-7.66 7.5-11m-53 73q49.553.312 45.5 50-8.946 35.432-45.5 32.5-25.75-5.75-31.5-31.5-5.444-39.19 31.5-51"/>
	<path style="opacity:.965" fill="#157de6" d="M834.5 7.5q9.393-.942 18 2.5 4.29 5.522 2.5 12.5a11.5 11.5 0 0 1-3.5 4.5q-36.474 1.22-35 37.5 13.509-.25 27 .5 8.6 4.77 5.5 14.5-1.841 3.339-5.5 4.5-13.491.75-27 .5.25 45.502-.5 91-2.44 8.606-11.5 8-8.84.407-11.5-8-.75-45.498-.5-91-7.018.25-14-.5-8.287-4.379-5.5-13.5a11.5 11.5 0 0 1 3.5-4.5 51.3 51.3 0 0 1 16-1.5q-1.637-45.787 42-57"/>
	<path style="opacity:.962" fill="#157de6" d="M579.5 10.5q17.62-2.37 21 15-4.745 21.373-25 12.5-9.766-9.377-3.5-21.5 3.171-3.93 7.5-6"/>
	<path style="opacity:.98" fill="#167de6" d="M169.5 59.5q40.606-5.571 64.5 27 14.149 24.888 8 53-16.71 52.662-71.5 43.5-16.097-5.104-27.5-17.5l-1 64q-4.926 9.58-15.5 6.5-4.25-2.25-6.5-6.5a1964 1964 0 0 1 1-124q11.045-37.11 48.5-46m4 21q36.604-3.093 46.5 32 5.511 38.91-31.5 50.5-35.878 3.111-45.5-31.5-5.344-38.375 30.5-51"/>
	<path style="opacity:.969" fill="#167de6" d="M319.5 59.5q33.603-5.557 56.5 19 15.525 21.884 10.5 48a26 26 0 0 1-5 3.5l-89 1q10.923 36.237 49 33 13.041-2.676 24-10 16.782-1.725 13.5 14.5-24.135 19.977-55.5 15.5-50.702-10.21-53-62 1.451-49.779 49-62.5m5 20q35.343-2.64 42 32h-73q5.391-25.89 31-32"/>
	<path style="opacity:.978" fill="#157de6" d="M683.5 59.5q42.45-5.39 65.5 30 7.045 13.135 8 28 1 28.5 0 57-5.673 14.061-19.5 7.5-2.98-1.978-3.5-5.5l-1-11q-27.11 28.13-64.5 15.5-30.232-14.256-35.5-47.5-5.548-58.493 50.5-74m4 21q42.916-1.338 47 41.5-4.044 43.055-47 41-25.402-6.902-31.5-32.5-4.548-38.135 31.5-50"/>
	<path style="opacity:.983" fill="#157de6" d="M583.5 59.5q9.128-.32 12.5 8 1 54.5 0 109-3.078 7.29-11 7-9.843.66-12-9a2808 2808 0 0 1 0-106q2.826-7.591 10.5-9"/>
	<path style="opacity:.975" fill="#167de6" d="M864.5 59.5q6.007.085 10.5 4a4828 4828 0 0 0 42 83q18.475-40.954 37-82 10.182-9.75 20 1 1.743 9.085-3 17l-64 144q-4.843 16.979-20.5 8.5-2.98-3.21-4-7.5a1034 1034 0 0 1 24-56 2406 2406 0 0 1-52-101q1.924-8.42 10-11"/>
</svg>
